<svg id="visual" viewBox="0 0 900 600" width="900" height="600" xmlns="http://www.w3.org/2000/svg" xmlns:xlink="http://www.w3.org/1999/xlink" version="1.1"><rect x="0" y="0" width="900" height="600" fill="#001220"></rect><defs><linearGradient id="grad1_0" x1="33.3%" y1="100%" x2="100%" y2="0%"><stop offset="20%" stop-color="#fbae3c" stop-opacity="1"></stop><stop offset="80%" stop-color="#fbae3c" stop-opacity="1"></stop></linearGradient></defs><defs><linearGradient id="grad1_1" x1="33.3%" y1="100%" x2="100%" y2="0%"><stop offset="20%" stop-color="#fbae3c" stop-opacity="1"></stop><stop offset="80%" stop-color="#001220" stop-opacity="1"></stop></linearGradient></defs><defs><linearGradient id="grad2_0" x1="0%" y1="100%" x2="66.7%" y2="0%"><stop offset="20%" stop-color="#fbae3c" stop-opacity="1"></stop><stop offset="80%" stop-color="#fbae3c" stop-opacity="1"></stop></linearGradient></defs><defs><linearGradient id="grad2_1" x1="0%" y1="100%" x2="66.7%" y2="0%"><stop offset="20%" stop-color="#001220" stop-opacity="1"></stop><stop offset="80%" stop-color="#fbae3c" stop-opacity="1"></stop></linearGradient></defs><g transform="translate(900, 600)"><path d="M-459.7 0C-392.4 -20.3 -325 -40.6 -330.3 -88.5C-335.6 -136.4 -413.6 -211.9 -398.1 -229.9C-382.7 -247.8 -273.8 -208.2 -236.2 -236.2C-198.6 -264.2 -232.2 -359.7 -214.5 -371.5C-196.8 -383.3 -127.9 -311.3 -83.6 -312C-39.3 -312.7 -19.7 -386.2 0 -459.7L0 0Z" fill="#96446e"></path><path d="M-229.9 0C-196.2 -10.2 -162.5 -20.3 -165.2 -44.3C-167.8 -68.2 -206.8 -106 -199.1 -114.9C-191.3 -123.9 -136.9 -104.1 -118.1 -118.1C-99.3 -132.1 -116.1 -179.9 -107.3 -185.8C-98.4 -191.7 -63.9 -155.6 -41.8 -156C-19.7 -156.4 -9.8 -193.1 0 -229.9L0 0Z" fill="#fbae3c"></path></g><g transform="translate(0, 0)"><path d="M459.7 0C403.2 25.9 346.7 51.8 344.8 92.4C343 133 395.7 188.2 398.1 229.9C400.5 271.6 352.5 299.8 304.8 304.8C257 309.8 209.5 291.6 180.5 312.6C151.5 333.7 140.9 394 113.9 425C86.9 456.1 43.4 457.9 0 459.7L0 0Z" fill="#96446e"></path><path d="M229.9 0C201.6 13 173.4 25.9 172.4 46.2C171.5 66.5 197.9 94.1 199.1 114.9C200.3 135.8 176.3 149.9 152.4 152.4C128.5 154.9 104.8 145.8 90.3 156.3C75.7 166.8 70.4 197 56.9 212.5C43.4 228 21.7 228.9 0 229.9L0 0Z" fill="#fbae3c"></path></g></svg>