<svg id="visual" viewBox="0 0 900 600" width="900" height="600" xmlns="http://www.w3.org/2000/svg" xmlns:xlink="http://www.w3.org/1999/xlink" version="1.1"><rect x="0" y="0" width="900" height="600" fill="#002233"></rect><path d="M195 0L354 0L354 75L190 75L190 150L120 150L120 225L199 225L199 300L216 300L216 375L253 375L253 450L223 450L223 525L361 525L361 600L0 600L0 525L0 525L0 450L0 450L0 375L0 375L0 300L0 300L0 225L0 225L0 150L0 150L0 75L0 75L0 0L0 0Z" fill="#F7CACA" stroke-linecap="square" stroke-linejoin="miter"></path></svg>